<svg xmlns="http://www.w3.org/2000/svg" viewBox="0 0 64 80" x="0px" y="0px"><g><path d="M7,55h3v2a1,1,0,0,0,1,1h8a1,1,0,0,0,1-1V50a1,1,0,0,0-1-1H16V47a1,1,0,0,0-1-1H7a1,1,0,0,0-1,1v7A1,1,0,0,0,7,55Zm11-4v5H12V55h3a1,1,0,0,0,1-1V51Zm-6,2V51h2v2ZM8,48h6v1H11a1,1,0,0,0-1,1v3H8Z"/><path d="M62,17V3a1,1,0,0,0-1-1H41a1,1,0,0,0-1,1V17a1,1,0,0,0,1,1h5.79l-.67,2.76a.982.982,0,0,0,.18.86,1,1,0,0,0,.79.38H50v2H27a1,1,0,0,0-1,1v9H21V31a1,1,0,0,0-1-1H13V27.98c4.51-.16,9-1.42,9-3.98V6c0-2.75-5.18-4-10-4S2,3.25,2,6V24c0,2.56,4.49,3.82,9,3.98V31a1,1,0,0,0,1,1h7v2H11a1.033,1.033,0,0,0-.71.29l-8,8A1,1,0,0,0,2,43V61a1,1,0,0,0,1,1H23a1,1,0,0,0,.71-.29l8-8A1.033,1.033,0,0,0,32,53V47h3a1,1,0,0,0,1-1V39H48v5H41a3.009,3.009,0,0,0-3,3v9.18A3,3,0,0,0,39,62H59a3,3,0,0,0,1-5.82V47a3.009,3.009,0,0,0-3-3H50V38a1,1,0,0,0-1-1H35a1,1,0,0,0-1,1v7H32V35h-.01a.83.83,0,0,0-.07-.38A.987.987,0,0,0,31,34H28V26H51a1,1,0,0,0,1-1V22h2.91a1,1,0,0,0,.79-.38.982.982,0,0,0,.18-.86L55.21,18H61A1,1,0,0,0,62,17ZM12,4c5.25,0,8,1.49,8,2s-2.75,2-8,2S4,6.51,4,6,6.75,4,12,4ZM4,8.52A18.866,18.866,0,0,0,12,10a18.866,18.866,0,0,0,8-1.48V12c0,.51-2.75,2-8,2s-8-1.49-8-2Zm0,6A18.866,18.866,0,0,0,12,16a18.866,18.866,0,0,0,8-1.48V18c0,.51-2.75,2-8,2s-8-1.49-8-2ZM4,24V20.52A18.866,18.866,0,0,0,12,22a18.866,18.866,0,0,0,8-1.48V24c0,.51-2.75,2-8,2S4,24.51,4,24ZM60,59a1,1,0,0,1-1,1H39a1,1,0,0,1,0-2h7a1,1,0,0,0,1,1h4a1,1,0,0,0,1-1h7A1,1,0,0,1,60,59ZM57,46a1,1,0,0,1,1,1v9H51a1,1,0,0,0-1,1H48a1,1,0,0,0-1-1H40V47a1,1,0,0,1,1-1ZM22,60H4V44H22Zm8-7.41-6,6V43.41l6-6ZM28.59,36l-6,6H5.41l6-6ZM48.36,20l.49-2h4.3l.49,2ZM60,16H42V14H60Zm0-4H42V4H60Z"/><rect x="48" y="50" width="2" height="2"/><rect x="52" y="50" width="2" height="2"/><rect x="44" y="50" width="2" height="2"/></g></svg>